<svg width="21" height="21" viewBox="0 0 21 21" fill="none" xmlns="http://www.w3.org/2000/svg">
<path d="M12.0274 10.5L19.9249 2.60249C20.1024 2.39525 20.1951 2.12867 20.1846 1.85602C20.1741 1.58337 20.0611 1.32474 19.8681 1.1318C19.6752 0.938864 19.4166 0.825837 19.1439 0.815306C18.8713 0.804774 18.6047 0.897515 18.3974 1.07499L10.4999 8.97249L2.60243 1.06416C2.39519 0.886681 2.12861 0.793942 1.85596 0.804473C1.58331 0.815004 1.32467 0.928031 1.13174 1.12097C0.938802 1.3139 0.825774 1.57254 0.815243 1.84519C0.804712 2.11783 0.897452 2.38442 1.07493 2.59166L8.97243 10.5L1.0641 18.3975C0.950692 18.4946 0.858587 18.6141 0.793562 18.7485C0.728536 18.8829 0.691995 19.0293 0.686232 19.1785C0.680469 19.3277 0.705609 19.4765 0.760073 19.6155C0.814537 19.7545 0.89715 19.8808 1.00273 19.9864C1.1083 20.0919 1.23456 20.1746 1.37358 20.229C1.5126 20.2835 1.66138 20.3086 1.81057 20.3029C1.95977 20.2971 2.10616 20.2606 2.24056 20.1955C2.37497 20.1305 2.49448 20.0384 2.5916 19.925L10.4999 12.0275L18.3974 19.925C18.6047 20.1025 18.8713 20.1952 19.1439 20.1847C19.4166 20.1741 19.6752 20.0611 19.8681 19.8682C20.0611 19.6753 20.1741 19.4166 20.1846 19.144C20.1951 18.8713 20.1024 18.6047 19.9249 18.3975L12.0274 10.5Z" fill="black"/>
</svg>
